The Hound of the Baskervilles (1939) B & W

Director: Sidney Lanfield

Though it takes a few liberties with the Arthur Conan Doyle original -- not the least of which is turning Sherlock Holmes into the second lead -- The Hound of the Baskervilles ranks as one of the best screen versions of this oft-told tale. After learning the history of the Baskerville curse from the hirsute Dr. Mortimer (Lionel Atwill), Sherlock Holmes (Basil Rathbone) takes upon himself the responsibility of protecting sole heir Henry Baskerville (top-billed Richard Greene) from suffering the same fate as his ancestors: a horrible death at the fangs of the huge hound of Grimpen Moor. Unable to head to Baskerville mansion immediately, Holmes sends his colleague Dr. Watson (Nigel Bruce) to act as his surrogate. What Watson doesn't know is that Holmes, donning several clever disguises, is closely monitoring the activities of everyone in and around the estate. Meanwhile, young Henry falls in love with Beryl Stapleton (Wendy Barrie), sister of the effusively friendly John Stapleton (Morton Lowry). Holmes and Watson compare notes, a red herring character (John Carradine) is eliminated, Henry Baskerville is nearly torn to shreds by a huge hound, and the man behind the plot to kill Henry and claim the Baskerville riches for himself is revealed at the very last moment. The Hound of the Baskervilles "improves" upon the original with such embellishments as turning the villain's wife into his sister, and by interpolating a spooky séance sequence involving mystic Beryl Mercer. In other respects, it is doggedly (sorry!) faithful to Doyle, even allowing Holmes to bait the censor by asking Dr. Watson for "the needle" at fadeout time. A big hit in a year of big hits, The Hound of the Baskervilles firmly established Basil Rathbone and Nigel Bruce as moviedom's definitive Sherlock Holmes and Dr. Watson. 

The Hound of the Baskervilles also marks the first of the fourteen Sherlock Holmes movies starring Rathbone and Bruce as the detective duo.

Media Info:
General
Complete name                    : J:\Seeding\The Hound of the Baskervilles (1939)[DVDRip][big_dad_e™]\The Hound of the Baskervilles (1939)[DVDRip][big_dad_e™].avi
Format                           : AVI
Format/Info                      : Audio Video Interleave
Format profile                   : OpenDML
File size                        : 1.22 GiB
Duration                         : 1h 20mn
Overall bit rate                 : 2 170 Kbps
Movie name                       : DVD7551_HOUNDSOFTHEBASKERVILLE_S.Title1.DVDRip
Writing application              : Lavf52.78.4
Original source form/Name        : DVD7551_HOUNDSOFTHEBASKERVILLE_S

Video
ID                               : 0
Format                           : MPEG-4 Visual
Format profile                   : Advanced Simple@L5
Format settings, BVOP            : 2
Format settings, QPel            : No
Format settings, GMC             : No warppoints
Format settings, Matrix          : Default (H.263)
Muxing mode                      : Packed bitstream
Codec ID                         : XVID
Codec ID/Hint                    : XviD
Duration                         : 1h 20mn
Bit rate                         : 1 833 Kbps
Width                            : 640 pixels
Height                           : 480 pixels
Display aspect ratio             : 4:3
Frame rate                       : 29.970 fps
Color space                      : YUV
Chroma subsampling               : 4:2:0
Bit depth                        : 8 bits
Scan type                        : Progressive
Compression mode                 : Lossy
Bits/(Pixel*Frame)               : 0.199
Stream size                      : 1.03 GiB (84%)
Writing library                  : XviD 1.2.1 (UTC 2008-12-04)

Audio
ID                               : 1
Format                           : MPEG Audio
Format version                   : Version 1
Format profile                   : Layer 3
Mode                             : Joint stereo
Mode extension                   : MS Stereo
Codec ID                         : 55
Codec ID/Hint                    : MP3
Duration                         : 1h 20mn
Bit rate mode                    : Constant
Bit rate                         : 320 Kbps
Channel(s)                       : 2 channels
Sampling rate                    : 48.0 KHz
Compression mode                 : Lossy
Stream size                      : 36.7 MiB (3%)
Alignment                        : Aligned on interleaves
Interleave, duration             : 120 ms (3.59 video frames)
Interleave, preload duration     : 24 ms
Writing library                  : LAME3.98.4

File Scan:
Malwarebytes' Anti-Malware 1.50.1.1100
www.malwarebytes.org

Database version: 6281
4/5/2011 8:10:57 PM
mbam-log-2011-04-05 (20-10-57).txt

Scan type: Quick scan
Objects scanned: 5
Time elapsed: 20 second(s)

Memory Processes Infected: 0
Memory Modules Infected: 0
Registry Keys Infected: 0
Registry Values Infected: 0
Registry Data Items Infected: 0
Folders Infected: 0
Files Infected: 0

Memory Processes Infected:
(No malicious items detected)

Memory Modules Infected:
(No malicious items detected)

Registry Keys Infected:
(No malicious items detected)

Registry Values Infected:
(No malicious items detected)

Registry Data Items Infected:
(No malicious items detected)

Folders Infected:
(No malicious items detected)

Files Infected:
(No malicious items detected)

When using TPB please read these important notes:
  
01- Anti-malware apps may warn about keygens, patches, cracks, etc., because of 
    their capabilities, (generating codes, etc.). Sometimes they're added to 
    the virus/spyware database and will be detected as malware. If you don't trust
    the keygens, patches, cracks, etc., don't use them. 
    
02- Before running .exe-files, keygens, patches, cracks, etc., always check first 
    if they can be unpacked. Often some third party added a virus to the 
    original file, repacked it and uploaded it again.

03- Letting anti-malware apps send scan results to their companies can cause
    keygens, patches, cracks, etc., to be added to their virus-database.

04- Firewalls which are set to automatically determine connections will allow 
    apps & malware!. Avoid this by manually configuring your firewall.

05- Usually (new) torrents with many downloads and seeders in a brief period is
    suspicious! Torrents with the Skull & Crossbones icon are trusted.

06- Some people use multiple accounts and post fake comments 
    and/or files trying to spread confusion. They seldom seriously
    comment or have any torrents, or a just a few to look passable.

07- Clicking on unknown links can cause malware to be installed on your machine.
  
08- In general often there are more fake and negative comments than reliable and
    positive comments.

09- In some countries uploading/downloading copyright protected material is 
    forbidden, but showing some appreciation to reliable up-loaders is not.

10- Posting fake and negative comments or fake/infected uploads on TPB can result
    in getting banned from TPB!

Requests?  Find me on SuprBay. http://forum.suprbay.org
 

For reporting bad or suspicious torrents:  
http://forum.suprbay.org/forumdisplay.php?fid=29

For more of my torrents: 
https://thepiratebay.org/user/big_dad_e/  (Secured)

All torrents scanned with:
Norton Anti-virus
Malwarebytes' Anti-malware
 
http://www.pirate-party.us/

ALWAYS SEED & THANKS SEEDERS!